<?xml version="1.0" standalone="no"?>
<!DOCTYPE svg PUBLIC "-//W3C//DTD SVG 20010904//EN"
 "http://www.w3.org/TR/2001/REC-SVG-20010904/DTD/svg10.dtd">
<svg version="1.0" xmlns="http://www.w3.org/2000/svg"
 width="16.000000pt" height="16.000000pt" viewBox="0 0 16.000000 16.000000"
 preserveAspectRatio="xMidYMid meet">

<g transform="translate(0.000000,16.000000) scale(0.100000,-0.100000)"
fill="#000000" stroke="none">
<path d="M4 147 c-3 -8 -4 -43 -2 -78 l3 -64 75 0 75 0 0 75 0 75 -73 3 c-55
2 -74 -1 -78 -11z m41 -44 c6 -16 7 -16 15 -2 9 16 90 26 90 11 0 -4 -8 -18
-17 -32 -16 -22 -16 -23 0 -17 11 4 17 1 17 -7 0 -11 -17 -14 -68 -15 l-67 0
0 39 c0 41 17 55 30 23z"/>
<path d="M90 78 c0 -10 2 -18 5 -18 2 0 9 8 14 18 8 14 6 19 -5 19 -7 0 -14
-9 -14 -19z"/>
</g>
</svg>
